<svg fill="#ffffff" xmlns="http://www.w3.org/2000/svg" width="1000px" height="400px"> 
    <rect width="100%" height="100%" fill="#2F495E" rx="15"/>

	<line x1="50" y1="50" x2="50" y2="365" stroke="#3775df" stroke-width="20" stroke-linecap="round"/>
	<line x1="35" y1="350" x2="350" y2="350" stroke="#00E676" stroke-width="20" stroke-linecap="round"/>

    <line x1="120" y1="200" x2="120" y2="340" stroke="#df8e37" stroke-width="40"/>
    <line x1="190" y1="100" x2="190" y2="340" stroke="#3775df" stroke-width="40"/>
    <line x1="260" y1="250" x2="260" y2="340" stroke="#df373d" stroke-width="40"/>

    <line x1="650" y1="50" x2="650" y2="365" stroke="#3775df" stroke-width="20" stroke-linecap="round"/>
	<line x1="635" y1="350" x2="950" y2="350" stroke="#00E676" stroke-width="20" stroke-linecap="round"/>

    <path d="M 550,550  h 100,100" stroke="#3775df" stroke-width="40"/>

    <path
    fill="none"
    stroke="red"
    stroke-width="10"
    stroke-linecap="round"
    d="M 675,325 
       l 75,-100
       l 100,-25
       l 50,-50" />

    <path
    fill="none"
    stroke="#ffbb00"
    stroke-width="10"
    stroke-linecap="round"
    d="M 675,325 
       l 75,-60
       l 100,25
       l 50,-50" />

       <svg xmlns="http://www.w3.org/2000/svg" viewBox="0 0 48 48" x="420" y="50" width="300">
            <path fill="#EA80FC" stroke="#EA80FC" d="M15,12V20H5V12H15M16,10H4A1,1 0 0,0 3,11V21A1,1 0 0,0 4,22H16A1,1 0 0,0 17,21V17.5L21,21.5V10.5L17,14.5V11A1,1 0 0,0 16,10M3,3.86L4.4,5.24C7.5,2.19 12.5,2.19 15.6,5.24L17,3.86C13.14,0.05 6.87,0.05 3,3.86M5.8,6.63L7.2,8C8.75,6.5 11.25,6.5 12.8,8L14.2,6.63C11.88,4.34 8.12,4.34 5.8,6.63Z" />
        </svg>

    </svg>